Coordinates
version=1
nRows=13
nColumns=40
inDegrees=yes

Units are S.I. units (second, meters, Newtons, ...)
If the header above contains a line with 'inDegrees', this indicates whether rotational values are in degrees (yes) or radians (no).

endheader
time	pelvis_tilt	pelvis_list	pelvis_rotation	pelvis_tx	pelvis_ty	pelvis_tz	hip_flexion_r	hip_adduction_r	hip_rotation_r	knee_angle_r	knee_angle_r_beta	ankle_angle_r	subtalar_angle_r	mtp_angle_r	hip_flexion_l	hip_adduction_l	hip_rotation_l	knee_angle_l	knee_angle_l_beta	ankle_angle_l	subtalar_angle_l	mtp_angle_l	lumbar_extension	lumbar_bending	lumbar_rotation	arm_flex_r	arm_add_r	arm_rot_r	elbow_flex_r	pro_sup_r	wrist_flex_r	wrist_dev_r	arm_flex_l	arm_add_l	arm_rot_l	elbow_flex_l	pro_sup_l	wrist_flex_l	wrist_dev_l
      0.21000000	     10.94234003	     -4.90157440	      1.02346677	      0.16854862	      0.94410298	     -0.24488923	      4.62548214	      8.05203062	     -4.48140390	     15.52644935	      0.27098766	      2.01887509	      0.00000000	      0.00000000	    -12.09965508	     -5.78069612	     -3.55401518	     51.08594842	      0.89161800	    -13.54405892	      0.00000000	      0.00000000	    -29.67623228	      7.10790311	      1.57451178	     -0.11909787	     -2.42835246	      2.94650294	     27.13954521	     89.23864051	    -17.38866805	     -6.97702703	      4.85442616	     -6.49780506	     13.23449255	     40.21392264	     89.39755598	      2.00762386	     11.25589302
      0.22000000	     11.36316464	     -4.87164026	      1.07168054	      0.17881014	      0.94604547	     -0.24363926	      3.36281450	      8.15043045	     -4.31494767	     15.29308667	      0.26691472	      2.20733386	      0.00000000	      0.00000000	    -11.19188533	     -5.96379164	     -3.10495939	     53.14805594	      0.92760857	    -13.77315600	      0.00000000	      0.00000000	    -30.24587890	      6.94697663	      1.75360192	      0.16210314	     -2.40912252	      2.45396315	     27.92083284	     89.23961930	    -17.61269011	     -7.49430703	      4.41939464	     -6.46352148	     13.30269600	     40.06272349	     89.41034050	      2.00950354	     11.54767038
      0.23000000	     11.64318065	     -4.69118846	      0.98005245	      0.18878336	      0.94784833	     -0.24229226	      2.28031079	      8.07017250	     -4.19580598	     15.11134397	      0.26374271	      2.56509607	      0.00000000	      0.00000000	    -10.13041306	     -5.89856264	     -2.69816163	     55.01797248	      0.96024477	    -13.36797312	      0.00000000	      0.00000000	    -30.64137263	      6.56098924	      1.99238711	      0.55927192	     -2.45206828	      2.40385988	     28.45685151	     89.23899870	    -17.64457505	     -7.72295095	      4.12973511	     -6.40530363	     13.54223696	     39.59391225	     89.41691812	      2.06275600	     11.80579163
      0.24000000	     11.40588406	     -4.61504218	      1.31720536	      0.19852204	      0.94860146	     -0.24162030	      1.82521276	      8.04733134	     -4.69163327	     14.99961181	      0.26179261	      3.06643104	      0.00000000	      0.00000000	     -8.26238966	     -5.90913864	     -1.65422564	     57.06295237	      0.99593640	    -12.13735531	      0.00000000	      0.00000000	    -30.43307403	      6.48924716	      2.38147922	      0.53658463	     -2.44982105	      1.41017621	     29.41818196	     89.24473123	    -17.83897178	     -8.23199939	      4.26867362	     -6.36946611	     14.75208663	     38.79722027	     89.41007179	      2.47487308	     12.85302126
      0.25000000	     11.62782260	     -4.31253256	      1.20173908	      0.20830733	      0.95028403	     -0.24040618	      0.77579188	      7.84514066	     -4.36118878	     14.75303515	      0.25748904	      3.45755206	      0.00000000	      0.00000000	     -7.13517369	     -5.59168655	     -1.19264781	     58.50268379	      1.02106445	    -10.89781134	      0.00000000	      0.00000000	    -30.74701851	      5.96541925	      2.61871655	      0.88088152	     -2.51157078	      1.38519948	     30.06754583	     89.23773750	    -17.81371110	     -8.37245582	      3.96183363	     -6.32211025	     15.00364257	     38.42288330	     89.41137747	      2.54870191	     13.00737921
      0.26000000	     11.67624321	     -4.02352917	      1.15598332	      0.21797229	      0.95163130	     -0.23924930	     -0.06096309	      7.64027471	     -4.28327628	     14.53291799	      0.25364727	      3.88968954	      0.00000000	      0.00000000	     -5.79075209	     -5.26984190	     -0.67252733	     59.77968374	      1.04335231	     -9.13161762	      0.00000000	      0.00000000	    -30.86664158	      5.48747779	      2.82733407	      1.17987957	     -2.52552841	      1.10873678	     30.79432434	     89.23346271	    -17.84443432	     -8.50919327	      3.69664687	     -6.30191237	     15.36807955	     38.00019441	     89.41662991	      2.64158611	     13.24647270
      0.27000000	     11.50710162	     -3.81154002	      1.18013154	      0.22741385	      0.95257946	     -0.23812148	     -0.59948787	      7.50391905	     -4.42463752	     14.39292890	      0.25120400	      4.27841034	      0.00000000	      0.00000000	     -4.12483045	     -5.03274561	     -0.10491324	     60.95375095	      1.06384365	     -7.34981445	      0.00000000	      0.00000000	    -30.75901796	      5.07942071	      3.52742413	      1.12550504	     -2.51392867	     -0.06156079	     31.87593570	     89.24653721	    -17.67895834	     -8.50918845	      3.90633352	     -6.25312800	     16.59947161	     37.16607855	     89.40955583	      2.94836763	     13.82721144
      0.28000000	     11.62644810	     -3.46248879	      1.00182948	      0.23693875	      0.95410533	     -0.23684931	     -1.57645233	      7.24519633	     -4.13108226	     14.00539201	      0.24444020	      4.54603109	      0.00000000	      0.00000000	     -2.93941235	     -4.59113190	      0.22813759	     61.60708286	      1.07524644	     -5.67481532	      0.00000000	      0.00000000	    -30.98015272	      4.47187794	      3.72942848	      1.52130052	     -2.55255650	     -0.09351560	     32.52189268	     89.24194230	    -17.66227164	     -8.61594223	      3.55199380	     -6.23754923	     16.70779621	     36.85665630	     89.41646685	      2.94606199	     13.87674529
      0.29000000	     11.67405338	     -3.17354592	      0.85640831	      0.24652182	      0.95536369	     -0.23563027	     -2.44194402	      7.04069444	     -3.94331723	     13.69648415	      0.23904874	      4.90869865	      0.00000000	      0.00000000	     -1.70208013	     -4.23227563	      0.49340901	     62.04287199	      1.08285239	     -3.73943387	      0.00000000	      0.00000000	    -31.07665731	      3.94515847	      3.96831903	      1.85543133	     -2.55276478	     -0.34895086	     33.20487707	     89.23614521	    -17.69100557	     -8.69074125	      3.21520546	     -6.22149943	     16.89585099	     36.51309346	     89.41446309	      2.93933099	     13.95943129
      0.30000000	     11.69584009	     -2.88590349	      0.70480092	      0.25607181	      0.95651012	     -0.23444018	     -3.30570111	      6.84038742	     -3.69022461	     13.31491259	      0.23238906	      5.20564053	      0.00000000	      0.00000000	     -0.45824658	     -3.87237045	      0.71825866	     62.22064509	      1.08595512	     -2.06908644	      0.00000000	      0.00000000	    -31.13345522	      3.41417460	      4.25240169	      2.15662387	     -2.56855002	     -0.55953473	     33.90284410	     89.22986766	    -17.71019947	     -8.75643165	      2.90579616	     -6.19803078	     17.08745782	     36.15992841	     89.41407874	      2.92608041	     14.03232222
      0.31000000	     11.71453930	     -2.60107061	      0.54956481	      0.26562619	      0.95756262	     -0.23331569	     -4.18560942	      6.63977991	     -3.42491486	     12.87395179	      0.22469285	      5.45560469	      0.00000000	      0.00000000	      0.77377814	     -3.52403981	      0.86677361	     62.17861584	      1.08522157	     -0.67360401	      0.00000000	      0.00000000	    -31.18094441	      2.88981780	      4.49944268	      2.47382074	     -2.60398817	     -0.65563725	     34.57368532	     89.23111274	    -17.72085810	     -8.83665175	      2.56927218	     -6.17784115	     17.21019467	     35.81740106	     89.42021468	      2.90862292	     14.08559546
      0.32000000	     11.70470378	     -2.34781225	      0.39405204	      0.27524525	      0.95843212	     -0.23228047	     -5.03519094	      6.46519440	     -3.11471333	     12.44210522	      0.21715570	      5.78034234	      0.00000000	      0.00000000	      1.93919644	     -3.19585497	      0.99504858	     61.80650049	      1.07872693	      0.76922933	      0.00000000	      0.00000000	    -31.16779988	      2.41413759	      4.77295967	      2.76120410	     -2.62889308	     -0.80069534	     35.25419198	     89.22648482	    -17.74380594	     -8.90115777	      2.23057546	     -6.14456421	     17.33117748	     35.48018922	     89.42146476	      2.88288717	     14.12623457
      0.33000000	     11.67588644	     -2.12077070	      0.27316184	      0.28487332	      0.95914831	     -0.23131204	     -5.85575674	      6.32765198	     -2.81952490	     12.02383130	      0.20985544	      6.10199897	      0.00000000	      0.00000000	      3.08057170	     -2.92789095	      1.05607715	     61.18117035	      1.06781286	      1.92488046	      0.00000000	      0.00000000	    -31.12738897	      1.98772244	      5.03031500	      3.03650635	     -2.67823817	     -0.88431198	     35.92760159	     89.22484340	    -17.75747693	     -8.96804218	      1.90114554	     -6.11432702	     17.42233794	     35.15120095	     89.41909785	      2.85530717	     14.15695595
